<?xml version="1.0" encoding="UTF-8" standalone="no"?>
<!-- Created with Inkscape (http://www.inkscape.org/) -->

<svg
   width="10cm"
   height="10cm"
   viewBox="0 0 100 99.999998"
   version="1.1"
   id="svg5"
   xmlns="http://www.w3.org/2000/svg"
   xmlns:svg="http://www.w3.org/2000/svg">
  <defs
     id="defs2" />
  <path
     d="M 23.90674,54.422258 16.477807,35.763594 q -0.253783,-0.643403 -0.484495,-1.429783 -0.207641,0.78638 -0.484495,1.429783 L 8.0798835,54.422258 Z m 6.136945,12.010174 h -0.992063 q -0.346068,0 -0.507567,-0.405105 L 24.322022,55.423106 H 7.6646016 L 3.4425684,66.027327 q -0.1153561,0.405105 -0.5306381,0.405105 h -0.94592 L 15.393461,32.927858 h 1.222774 z"
     style="font-size:46.8948px;font-family:lato;-inkscape-font-specification:lato;stroke-width:0.270547"
     id="path291" />
  <path
     d="M 67.165312,32.927858 V 66.432432 H 66.057893 V 35.787424 q 0,-0.190639 0,-0.381276 0.02307,-0.190638 0.02307,-0.381275 L 52.468945,59.688624 q -0.230712,0.405105 -0.55371,0.405105 h -0.230712 q -0.346068,0 -0.57678,-0.405105 L 37.080441,34.977213 q 0.02307,0.214468 0.02307,0.428935 0.02307,0.190637 0.02307,0.381276 V 66.432432 H 36.019165 V 32.927858 h 0.76135 q 0.184569,0 0.299926,0.07149 0.138427,0.04767 0.253784,0.238297 l 14.073443,24.687581 q 0.207642,0.452765 0.392211,0.881699 0.09229,-0.214466 0.18457,-0.428934 0.09229,-0.238297 0.207641,-0.476594 L 65.850252,33.237642 q 0.115356,-0.190637 0.230712,-0.238297 0.138427,-0.07149 0.322998,-0.07149 z"
     style="font-size:46.8948px;font-family:lato;-inkscape-font-specification:lato;stroke-width:0.270547"
     id="path293" />
  <path
     d="M 98.080778,34.071684 H 86.199099 V 66.432432 H 84.930182 V 34.071684 H 72.97929 v -1.143826 h 25.101488 z"
     style="font-size:46.8948px;font-family:lato;-inkscape-font-specification:lato;stroke-width:0.270547"
     id="path295" />
</svg>
