<?xml version="1.0" encoding="UTF-8" standalone="no"?>
<!-- Created with Inkscape (http://www.inkscape.org/) -->

<svg
   width="10cm"
   height="10cm"
   viewBox="0 0 100 99.999998"
   version="1.1"
   id="svg5"
   sodipodi:docname="logo.svg"
   inkscape:version="1.2.2 (b0a8486541, 2022-12-01)"
   xmlns:inkscape="http://www.inkscape.org/namespaces/inkscape"
   xmlns:sodipodi="http://sodipodi.sourceforge.net/DTD/sodipodi-0.dtd"
   xmlns="http://www.w3.org/2000/svg"
   xmlns:svg="http://www.w3.org/2000/svg">
  <sodipodi:namedview
     id="namedview123"
     pagecolor="#ffffff"
     bordercolor="#999999"
     borderopacity="1"
     inkscape:showpageshadow="0"
     inkscape:pageopacity="0"
     inkscape:pagecheckerboard="0"
     inkscape:deskcolor="#d1d1d1"
     inkscape:document-units="cm"
     showgrid="false"
     inkscape:zoom="0.6014891"
     inkscape:cx="-46.551135"
     inkscape:cy="263.51267"
     inkscape:window-width="1536"
     inkscape:window-height="841"
     inkscape:window-x="0"
     inkscape:window-y="32"
     inkscape:window-maximized="1"
     inkscape:current-layer="svg5" />
  <defs
     id="defs2" />
  <g
     inkscape:groupmode="layer"
     id="layer2"
     inkscape:label="back" />
  <rect
     style="fill:#ececec;stroke-width:0.729275"
     id="rect283"
     width="90.956345"
     height="40.861767"
     x="4.5218267"
     y="29.569117"
     ry="3.01774" />
  <g
     id="g316"
     transform="matrix(0.88933859,0,0,0.98273763,3.9132199,43.181648)">
    <path
       d="M 25.015622,11.375171 18.411638,-5.020137 q -0.343958,-0.8025675 -0.664985,-1.926162 -0.137583,0.550332 -0.298096,1.054803 -0.160514,0.4815405 -0.343958,0.8942895 L 10.500615,11.375171 Z m 7.177246,11.786277 h -1.811509 q -0.321027,0 -0.527402,-0.160514 -0.206374,-0.183444 -0.321027,-0.45861 L 25.726467,13.117889 H 9.78977 L 5.983307,22.542324 Q 5.891585,22.79456 5.66228,22.978004 5.432975,23.161448 5.111948,23.161448 H 3.323369 L 16.600128,-9.28521 h 2.315981 z"
       id="path303"
       style="font-size:45.861px;font-family:Lato;-inkscape-font-specification:Lato;stroke-width:0.264583" />
    <path
       d="M 69.638394,-9.28521 V 23.161448 H 67.59758 V -4.4927355 q 0,-0.596193 0.06879,-1.2611775 L 54.894083,16.924352 q -0.321027,0.596193 -0.91722,0.596193 h -0.366888 q -0.596193,0 -0.91722,-0.596193 L 39.576509,-5.799774 q 0.06879,0.687915 0.06879,1.3070385 V 23.161448 H 37.581555 V -9.28521 h 1.628066 q 0.321027,0 0.504471,0.068791 0.183444,0.068791 0.366888,0.366888 l 13.093315,22.563613 q 0.343958,0.642054 0.596193,1.37583 0.137583,-0.366888 0.298097,-0.710846 0.160513,-0.366888 0.343957,-0.687915 L 67.13897,-8.8495305 q 0.183444,-0.2980965 0.366888,-0.366888 0.206374,-0.068791 0.527401,-0.068791 z"
       id="path305"
       style="font-size:45.861px;font-family:Lato;-inkscape-font-specification:Lato;stroke-width:0.264583" />
    <path
       d="M 100.31945,-7.2902565 H 88.922987 V 23.161448 H 86.561146 V -7.2902565 H 75.095896 V -9.28521 h 25.223554 z"
       id="path307"
       style="font-size:45.861px;font-family:Lato;-inkscape-font-specification:Lato;stroke-width:0.264583" />
  </g>
</svg>
